<svg xmlns="http://www.w3.org/2000/svg" viewBox="0 0 180 40"><defs><style>.cls-1{fill:#1ab6f1;}.cls-2{fill:#fff;}</style></defs><title>Asset 2</title><g id="Layer_2" data-name="Layer 2"><g id="Layer_1-2" data-name="Layer 1"><rect class="cls-1" width="180" height="40"/><path class="cls-2" d="M39.28,14.65h1.42V25.94H47.8v1.31H39.28Z"/><path class="cls-2" d="M50.53,14.65h9.11v1.3H52v4.3h6.88v1.3H52V26h7.78v1.3h-9.2Z"/><path class="cls-2" d="M66,16H61.73V14.65h9.92V16H67.4V27.25H66Z"/><path class="cls-2" d="M73.55,18.1c.9-.32,1.28-.79,1.21-1.57h-.65V14.65h1.66v1.62a2.21,2.21,0,0,1-2,2.47Z"/><path class="cls-2" d="M78.18,25.41l.88-1a6,6,0,0,0,4.32,1.78c1.69,0,2.81-.9,2.81-2.14v0c0-1.17-.63-1.84-3.28-2.39-2.9-.63-4.23-1.57-4.23-3.64v0c0-2,1.75-3.44,4.14-3.44A6.57,6.57,0,0,1,87.25,16l-.83,1.1a5.53,5.53,0,0,0-3.64-1.37c-1.64,0-2.68.9-2.68,2v0c0,1.19.65,1.85,3.42,2.45s4.11,1.64,4.11,3.57v0c0,2.16-1.8,3.56-4.3,3.56A7.38,7.38,0,0,1,78.18,25.41Z"/><path class="cls-2" d="M99.56,16H95.32V14.65h9.92V16H101V27.25H99.56Z"/><path class="cls-2" d="M111.12,14.56h1.33l5.74,12.69h-1.53l-1.48-3.33h-6.86l-1.49,3.33h-1.46Zm3.51,8.08-2.86-6.43-2.88,6.43Z"/><path class="cls-2" d="M120.86,14.65h1.42V25.94h7.09v1.31h-8.52Z"/><path class="cls-2" d="M132.11,14.65h1.42v7.53l7.24-7.53h1.85l-5.42,5.51,5.64,7.09h-1.78l-4.84-6.1-2.68,2.72v3.38h-1.42Z"/></g></g></svg>