<?xml version="1.0" encoding="utf-8" standalone="no"?>
<!DOCTYPE svg PUBLIC "-//W3C//DTD SVG 1.1//EN"
  "http://www.w3.org/Graphics/SVG/1.1/DTD/svg11.dtd">
<!-- Created with matplotlib (https://matplotlib.org/) -->
<svg height="288pt" version="1.1" viewBox="0 0 432 288" width="432pt" xmlns="http://www.w3.org/2000/svg" xmlns:xlink="http://www.w3.org/1999/xlink">
 <metadata>
  <rdf:RDF xmlns:cc="http://creativecommons.org/ns#" xmlns:dc="http://purl.org/dc/elements/1.1/" xmlns:rdf="http://www.w3.org/1999/02/22-rdf-syntax-ns#">
   <cc:Work>
    <dc:type rdf:resource="http://purl.org/dc/dcmitype/StillImage"/>
    <dc:date>2022-05-16T23:53:59.507052</dc:date>
    <dc:format>image/svg+xml</dc:format>
    <dc:creator>
     <cc:Agent>
      <dc:title>Matplotlib v3.3.2, https://matplotlib.org/</dc:title>
     </cc:Agent>
    </dc:creator>
   </cc:Work>
  </rdf:RDF>
 </metadata>
 <defs>
  <style type="text/css">*{stroke-linecap:butt;stroke-linejoin:round;}</style>
 </defs>
 <g id="figure_1">
  <g id="patch_1">
   <path d="M 0 288 
L 432 288 
L 432 0 
L 0 0 
z
" style="fill:none;"/>
  </g>
  <g id="axes_1">
   <g id="patch_2">
    <path d="M 54 252 
L 388.8 252 
L 388.8 34.56 
L 54 34.56 
z
" style="fill:#ffffff;"/>
   </g>
   <g id="matplotlib.axis_1">
    <g id="xtick_1">
     <g id="line2d_1">
      <defs>
       <path d="M 0 0 
L 0 3.5 
" id="m711b4ef957" style="stroke:#000000;stroke-width:0.8;"/>
      </defs>
      <g>
       <use style="stroke:#000000;stroke-width:0.8;" x="99.654545" xlink:href="#m711b4ef957" y="252"/>
      </g>
     </g>
     <g id="text_1">
      <text style="font-family:DejaVu Sans;font-size:10px;font-stretch:normal;font-style:normal;font-weight:normal;text-anchor:middle;" transform="rotate(-0, 99.654545, 266.598437)" x="99.654545" y="266.598437">−4</text>
     </g>
    </g>
    <g id="xtick_2">
     <g id="line2d_2">
      <g>
       <use style="stroke:#000000;stroke-width:0.8;" x="160.527273" xlink:href="#m711b4ef957" y="252"/>
      </g>
     </g>
     <g id="text_2">
      <text style="font-family:DejaVu Sans;font-size:10px;font-stretch:normal;font-style:normal;font-weight:normal;text-anchor:middle;" transform="rotate(-0, 160.527273, 266.598437)" x="160.527273" y="266.598437">−2</text>
     </g>
    </g>
    <g id="xtick_3">
     <g id="line2d_3">
      <g>
       <use style="stroke:#000000;stroke-width:0.8;" x="221.4" xlink:href="#m711b4ef957" y="252"/>
      </g>
     </g>
     <g id="text_3">
      <text style="font-family:DejaVu Sans;font-size:10px;font-stretch:normal;font-style:normal;font-weight:normal;text-anchor:middle;" transform="rotate(-0, 221.4, 266.598437)" x="221.4" y="266.598437">0</text>
     </g>
    </g>
    <g id="xtick_4">
     <g id="line2d_4">
      <g>
       <use style="stroke:#000000;stroke-width:0.8;" x="282.272727" xlink:href="#m711b4ef957" y="252"/>
      </g>
     </g>
     <g id="text_4">
      <text style="font-family:DejaVu Sans;font-size:10px;font-stretch:normal;font-style:normal;font-weight:normal;text-anchor:middle;" transform="rotate(-0, 282.272727, 266.598437)" x="282.272727" y="266.598437">2</text>
     </g>
    </g>
    <g id="xtick_5">
     <g id="line2d_5">
      <g>
       <use style="stroke:#000000;stroke-width:0.8;" x="343.145455" xlink:href="#m711b4ef957" y="252"/>
      </g>
     </g>
     <g id="text_5">
      <text style="font-family:DejaVu Sans;font-size:10px;font-stretch:normal;font-style:normal;font-weight:normal;text-anchor:middle;" transform="rotate(-0, 343.145455, 266.598437)" x="343.145455" y="266.598437">4</text>
     </g>
    </g>
   </g>
   <g id="matplotlib.axis_2">
    <g id="ytick_1">
     <g id="line2d_6">
      <defs>
       <path d="M 0 0 
L -3.5 0 
" id="m65ef47d566" style="stroke:#000000;stroke-width:0.8;"/>
      </defs>
      <g>
       <use style="stroke:#000000;stroke-width:0.8;" x="54" xlink:href="#m65ef47d566" y="239.508064"/>
      </g>
     </g>
     <g id="text_6">
      <text style="font-family:DejaVu Sans;font-size:10px;font-stretch:normal;font-style:normal;font-weight:normal;text-anchor:end;" transform="rotate(-0, 47, 243.307283)" x="47" y="243.307283">−0.2</text>
     </g>
    </g>
    <g id="ytick_2">
     <g id="line2d_7">
      <g>
       <use style="stroke:#000000;stroke-width:0.8;" x="54" xlink:href="#m65ef47d566" y="206.883396"/>
      </g>
     </g>
     <g id="text_7">
      <text style="font-family:DejaVu Sans;font-size:10px;font-stretch:normal;font-style:normal;font-weight:normal;text-anchor:end;" transform="rotate(-0, 47, 210.682615)" x="47" y="210.682615">0.0</text>
     </g>
    </g>
    <g id="ytick_3">
     <g id="line2d_8">
      <g>
       <use style="stroke:#000000;stroke-width:0.8;" x="54" xlink:href="#m65ef47d566" y="174.258729"/>
      </g>
     </g>
     <g id="text_8">
      <text style="font-family:DejaVu Sans;font-size:10px;font-stretch:normal;font-style:normal;font-weight:normal;text-anchor:end;" transform="rotate(-0, 47, 178.057948)" x="47" y="178.057948">0.2</text>
     </g>
    </g>
    <g id="ytick_4">
     <g id="line2d_9">
      <g>
       <use style="stroke:#000000;stroke-width:0.8;" x="54" xlink:href="#m65ef47d566" y="141.634062"/>
      </g>
     </g>
     <g id="text_9">
      <text style="font-family:DejaVu Sans;font-size:10px;font-stretch:normal;font-style:normal;font-weight:normal;text-anchor:end;" transform="rotate(-0, 47, 145.43328)" x="47" y="145.43328">0.4</text>
     </g>
    </g>
    <g id="ytick_5">
     <g id="line2d_10">
      <g>
       <use style="stroke:#000000;stroke-width:0.8;" x="54" xlink:href="#m65ef47d566" y="109.009394"/>
      </g>
     </g>
     <g id="text_10">
      <text style="font-family:DejaVu Sans;font-size:10px;font-stretch:normal;font-style:normal;font-weight:normal;text-anchor:end;" transform="rotate(-0, 47, 112.808613)" x="47" y="112.808613">0.6</text>
     </g>
    </g>
    <g id="ytick_6">
     <g id="line2d_11">
      <g>
       <use style="stroke:#000000;stroke-width:0.8;" x="54" xlink:href="#m65ef47d566" y="76.384727"/>
      </g>
     </g>
     <g id="text_11">
      <text style="font-family:DejaVu Sans;font-size:10px;font-stretch:normal;font-style:normal;font-weight:normal;text-anchor:end;" transform="rotate(-0, 47, 80.183945)" x="47" y="80.183945">0.8</text>
     </g>
    </g>
    <g id="ytick_7">
     <g id="line2d_12">
      <g>
       <use style="stroke:#000000;stroke-width:0.8;" x="54" xlink:href="#m65ef47d566" y="43.760059"/>
      </g>
     </g>
     <g id="text_12">
      <text style="font-family:DejaVu Sans;font-size:10px;font-stretch:normal;font-style:normal;font-weight:normal;text-anchor:end;" transform="rotate(-0, 47, 47.559278)" x="47" y="47.559278">1.0</text>
     </g>
    </g>
   </g>
   <g id="line2d_13">
    <path clip-path="url(#p4d62ef99c2)" d="M 69.218182 206.883396 
L 72.292562 203.576194 
L 75.366942 200.466943 
L 78.441322 197.878473 
L 81.515702 196.095198 
L 84.590083 195.33327 
L 87.664463 195.716195 
L 90.738843 197.25851 
L 93.813223 199.859433 
L 96.887603 203.307512 
L 99.961983 207.296298 
L 103.036364 211.44999 
L 106.110744 215.357043 
L 109.185124 218.608839 
L 112.259504 220.839976 
L 115.333884 221.766385 
L 118.408264 221.217556 
L 121.482645 219.159534 
L 124.557025 215.70606 
L 127.631405 211.116231 
L 130.705785 205.778218 
L 133.780165 200.17984 
L 136.854545 194.868052 
L 139.928926 190.400476 
L 143.003306 187.292996 
L 146.077686 185.967946 
L 149.152066 186.70757 
L 152.226446 189.617195 
L 155.300826 194.60184 
L 158.375207 201.359026 
L 161.449587 209.389197 
L 164.523967 218.023746 
L 167.598347 226.469082 
L 170.672727 233.863779 
L 173.747107 239.344611 
L 176.821488 242.116364 
L 179.895868 241.519847 
L 182.970248 237.092472 
L 186.044628 228.616193 
L 189.119008 216.148513 
L 192.193388 200.033474 
L 195.267769 180.891153 
L 198.342149 159.585811 
L 201.416529 137.174629 
L 204.490909 114.840519 
L 207.565289 93.813821 
L 210.639669 75.288706 
L 213.71405 60.340552 
L 216.78843 49.850593 
L 219.86281 44.443636 
L 222.93719 44.443636 
L 226.01157 49.850593 
L 229.08595 60.340552 
L 232.160331 75.288706 
L 235.234711 93.813821 
L 238.309091 114.840519 
L 241.383471 137.174629 
L 244.457851 159.585811 
L 247.532231 180.891153 
L 250.606612 200.033474 
L 253.680992 216.148513 
L 256.755372 228.616193 
L 259.829752 237.092472 
L 262.904132 241.519847 
L 265.978512 242.116364 
L 269.052893 239.344611 
L 272.127273 233.863779 
L 275.201653 226.469082 
L 278.276033 218.023746 
L 281.350413 209.389197 
L 284.424793 201.359026 
L 287.499174 194.60184 
L 290.573554 189.617195 
L 293.647934 186.70757 
L 296.722314 185.967946 
L 299.796694 187.292996 
L 302.871074 190.400476 
L 305.945455 194.868052 
L 309.019835 200.17984 
L 312.094215 205.778218 
L 315.168595 211.116231 
L 318.242975 215.70606 
L 321.317355 219.159534 
L 324.391736 221.217556 
L 327.466116 221.766385 
L 330.540496 220.839976 
L 333.614876 218.608839 
L 336.689256 215.357043 
L 339.763636 211.44999 
L 342.838017 207.296298 
L 345.912397 203.307512 
L 348.986777 199.859433 
L 352.061157 197.25851 
L 355.135537 195.716195 
L 358.209917 195.33327 
L 361.284298 196.095198 
L 364.358678 197.878473 
L 367.433058 200.466943 
L 370.507438 203.576194 
L 373.581818 206.883396 
" style="fill:none;stroke:#1f77b4;stroke-linecap:square;stroke-width:1.5;"/>
   </g>
   <g id="patch_3">
    <path d="M 54 252 
L 54 34.56 
" style="fill:none;stroke:#000000;stroke-linecap:square;stroke-linejoin:miter;stroke-width:0.8;"/>
   </g>
   <g id="patch_4">
    <path d="M 388.8 252 
L 388.8 34.56 
" style="fill:none;stroke:#000000;stroke-linecap:square;stroke-linejoin:miter;stroke-width:0.8;"/>
   </g>
   <g id="patch_5">
    <path d="M 54 252 
L 388.8 252 
" style="fill:none;stroke:#000000;stroke-linecap:square;stroke-linejoin:miter;stroke-width:0.8;"/>
   </g>
   <g id="patch_6">
    <path d="M 54 34.56 
L 388.8 34.56 
" style="fill:none;stroke:#000000;stroke-linecap:square;stroke-linejoin:miter;stroke-width:0.8;"/>
   </g>
   <g id="text_13">
    <text style="font-family:DejaVu Sans;font-size:12px;font-stretch:normal;font-style:normal;font-weight:normal;text-anchor:middle;" transform="rotate(-0, 221.4, 28.56)" x="221.4" y="28.56">The plot of $\operatorname{sinc}(x)=\frac{\sin \pi x}{\pi x}$</text>
   </g>
  </g>
 </g>
 <defs>
  <clipPath id="p4d62ef99c2">
   <rect height="217.44" width="334.8" x="54" y="34.56"/>
  </clipPath>
 </defs>
</svg>
