<?xml version="1.0" encoding="UTF-8" standalone="no"?>
<!-- Created with Inkscape (http://www.inkscape.org/) -->

<svg
   xmlns:ns1="http://www.iki.fi/pav/software/textext/"
   xmlns:dc="http://purl.org/dc/elements/1.1/"
   xmlns:cc="http://creativecommons.org/ns#"
   xmlns:rdf="http://www.w3.org/1999/02/22-rdf-syntax-ns#"
   xmlns:svg="http://www.w3.org/2000/svg"
   xmlns="http://www.w3.org/2000/svg"
   xmlns:sodipodi="http://sodipodi.sourceforge.net/DTD/sodipodi-0.dtd"
   xmlns:inkscape="http://www.inkscape.org/namespaces/inkscape"
   width="100%"
   height="100%"
   viewBox="0 0 6.3295431 3.154144"
   version="1.1"
   id="svg8"
   inkscape:version="0.92.3 (2405546, 2018-03-11)"
   sodipodi:docname="tex.svg">
  <sodipodi:namedview
     id="base"
     pagecolor="#ffffff"
     bordercolor="#666666"
     borderopacity="1.0"
     inkscape:pageopacity="0.0"
     inkscape:pageshadow="2"
     inkscape:zoom="7.9195959"
     inkscape:cx="-19.364585"
     inkscape:cy="20.65258"
     inkscape:document-units="mm"
     inkscape:current-layer="layer1"
     showgrid="false"
     inkscape:window-width="1920"
     inkscape:window-height="1052"
     inkscape:window-x="0"
     inkscape:window-y="288"
     inkscape:window-maximized="1"
     inkscape:pagecheckerboard="true" />
  <defs
     id="defs2" />
  <metadata
     id="metadata5">
    <rdf:RDF>
      <cc:Work
         rdf:about="">
        <dc:format>image/svg+xml</dc:format>
        <dc:type
           rdf:resource="http://purl.org/dc/dcmitype/StillImage" />
        <dc:title></dc:title>
      </cc:Work>
    </rdf:RDF>
  </metadata>
  <g
     id="layer1"
     inkscape:groupmode="layer"
     inkscape:label="Layer 1"
     transform="translate(-41.432316,-35.738804)">
    <g
       id="g831"
       ns1:jacobian_sqrt="0.352778"
       ns1:alignment="middle center"
       ns1:scale="1.0"
       ns1:preamble="/home/alan/.config/inkscape/extensions/textext/default_packages.tex"
       ns1:text="\\TeX"
       ns1:pdfconverter="pdf2svg"
       ns1:texconverter="pdflatex"
       ns1:version="0.11.0"
       transform="matrix(0.352778,0,0,0.352778,-11.156786,-9.4000235)">
      <g
         id="surface1">
        <g
           id="g820"
           style="fill:#000000;fill-opacity:1">
          <path
             id="path818"
             transform="translate(148.712,134.765)"
             d="m 0.546875,-6.765625 -0.1875,2.25 h 0.25 c 0.03125,-0.515625 0.0625,-1.21875 0.375,-1.5625 0.34375,-0.359375 0.90625,-0.375 1.375,-0.375 h 0.25 c 0.265625,0 0.546875,0 0.546875,0.328125 v 5.359375 C 3.15625,-0.375 2.75,-0.3125 2.390625,-0.3125 c -0.125,0 -0.25,0 -0.359375,0 H 1.703125 v 0.296875 h 3.78125 V -0.3125 H 4.8125 c -0.390625,0 -0.78125,-0.046875 -0.78125,-0.453125 V -6.125 c 0,-0.28125 0.171875,-0.328125 0.546875,-0.328125 h 0.25 c 0.46875,0 1.03125,0.015625 1.375,0.375 0.3125,0.34375 0.34375,1.046875 0.375,1.5625 h 0.25 l -0.1875,-2.25 z m 0,0"
             style="stroke:none;stroke-width:0"
             inkscape:connector-curvature="0" />
        </g>
        <g
           id="g824"
           style="fill:#000000;fill-opacity:1">
          <path
             id="path822"
             transform="translate(154.245,136.909)"
             d="m 0.328125,-6.78125 v 0.296875 c 0.125,0 0.265625,0 0.375,0 0.359375,0 0.65625,0.046875 0.65625,0.4375 V -0.75 c 0,0.375 -0.328125,0.4375 -0.671875,0.4375 -0.125,0 -0.25,0 -0.359375,0 v 0.296875 h 5.75 l 0.40625,-2.5625 h -0.25 C 6.09375,-1.671875 5.96875,-0.671875 4.890625,-0.40625 4.578125,-0.328125 4.25,-0.3125 3.9375,-0.3125 H 2.65625 C 2.46875,-0.3125 2.25,-0.34375 2.25,-0.640625 V -3.375 h 0.90625 c 0.359375,0 0.734375,0.03125 0.9375,0.328125 0.109375,0.21875 0.125,0.484375 0.125,0.734375 v 0.09375 h 0.25 v -2.640625 h -0.25 V -4.75 c 0,0.53125 -0.125,0.96875 -0.703125,1.046875 C 3.3125,-3.6875 3.125,-3.6875 2.9375,-3.6875 H 2.25 V -6.125 c 0,-0.34375 0.203125,-0.359375 0.40625,-0.359375 h 1.203125 c 0.59375,0 1.3125,0 1.703125,0.53125 0.296875,0.40625 0.34375,0.921875 0.40625,1.40625 h 0.25 L 5.9375,-6.78125 Z m 0,0"
             style="stroke:none;stroke-width:0"
             inkscape:connector-curvature="0" />
        </g>
        <g
           id="g828"
           style="fill:#000000;fill-opacity:1">
          <path
             id="path826"
             transform="translate(159.779,134.765)"
             d="m 0.375,-6.8125 v 0.296875 h 0.234375 c 0.4375,0 0.671875,0.0625 0.90625,0.421875 L 3.25,-3.484375 c 0.015625,0.03125 0.046875,0.0625 0.046875,0.09375 0,0.078125 -0.109375,0.1875 -0.15625,0.265625 C 2.71875,-2.5 2.296875,-1.890625 1.875,-1.25 1.703125,-1.015625 1.5625,-0.765625 1.3125,-0.59375 1,-0.390625 0.609375,-0.3125 0.234375,-0.3125 v 0.296875 h 2.375 V -0.3125 C 2.34375,-0.3125 2,-0.453125 2,-0.78125 c 0,-0.140625 0.109375,-0.25 0.1875,-0.359375 0.453125,-0.65625 0.890625,-1.3125 1.328125,-1.96875 0.125,0.234375 0.28125,0.453125 0.4375,0.671875 0.25,0.390625 0.5,0.765625 0.765625,1.15625 l 0.3125,0.46875 C 5.0625,-0.75 5.140625,-0.671875 5.140625,-0.609375 5.109375,-0.40625 4.703125,-0.3125 4.484375,-0.3125 v 0.296875 h 2.75 V -0.3125 H 6.96875 c -0.453125,0 -0.671875,-0.09375 -0.921875,-0.46875 C 5.453125,-1.71875 4.78125,-2.625 4.203125,-3.5625 4.140625,-3.65625 4.09375,-3.765625 4,-3.84375 V -3.859375 C 4.0625,-3.921875 4.109375,-4 4.171875,-4.078125 L 4.40625,-4.4375 c 0.25,-0.375 0.5,-0.71875 0.75,-1.09375 0.171875,-0.265625 0.328125,-0.53125 0.59375,-0.703125 0.3125,-0.21875 0.703125,-0.28125 1.0625,-0.28125 V -6.8125 h -2.375 v 0.296875 c 0.25,0 0.609375,0.15625 0.609375,0.46875 0,0.171875 -0.234375,0.46875 -0.375,0.65625 -0.1875,0.28125 -0.375,0.5625 -0.5625,0.828125 C 4,-4.421875 3.921875,-4.265625 3.8125,-4.140625 3.53125,-4.65625 3.140625,-5.15625 2.8125,-5.671875 2.703125,-5.828125 2.46875,-6.09375 2.46875,-6.21875 2.5,-6.421875 2.90625,-6.515625 3.125,-6.515625 V -6.8125 Z m 0,0"
             style="stroke:none;stroke-width:0"
             inkscape:connector-curvature="0" />
        </g>
      </g>
    </g>
  </g>
</svg>
